<?xml version="1.0" encoding="iso-8859-1"?>
<!-- Generator: Adobe Illustrator 19.0.0, SVG Export Plug-In . SVG Version: 6.00 Build 0)  -->
<svg version="1.1" id="Capa_1" xmlns="http://www.w3.org/2000/svg" xmlns:xlink="http://www.w3.org/1999/xlink" x="0px" y="0px"
	 viewBox="0 0 512 512" style="enable-background:new 0 0 512 512;" xml:space="preserve">
<path style="fill:#717483;" d="M367,172.925h-95h-30H93.53c-7.2,0-13.03,5.83-13.03,13.03v110.97v115h48.26H430.5v-177.5v-61.5
	L367,172.925L367,172.925z"/>
<g>
	<path style="fill:#4C5574;" d="M430.5,234.425v-61.5H367h-12v39.53c0,18.731,15.239,33.97,33.97,33.97h41.53V234.425z"/>
	<path style="fill:#4C5574;" d="M212,185.955c0-7.2,5.83-13.03,13.03-13.03H93.53c-7.2,0-13.03,5.83-13.03,13.03v110.97v115h48.26
		H212v-115V185.955z"/>
</g>
<path style="fill:#8ACAEB;" d="M367,197.925h-95h-30H111.547c-3.34,0-6.047,2.707-6.047,6.047v176.906
	c0,3.34,2.707,6.047,6.047,6.047h287.906c3.34,0,6.047-2.707,6.047-6.047V234.425v-30.453c0-3.34-2.707-6.047-6.047-6.047H367z"/>
<path style="fill:#7CA1D8;" d="M399.453,197.925H367h-12v14.53c0,18.731,15.239,33.97,33.97,33.97h16.53v-12v-30.453
	C405.5,200.632,402.793,197.925,399.453,197.925z"/>
<path style="fill:#8BB1EA;" d="M210,380.878V203.972c0-3.34,2.707-6.047,6.047-6.047h-104.5c-3.34,0-6.047,2.707-6.047,6.047
	v176.906c0,3.34,2.707,6.047,6.047,6.047h104.5C212.707,386.925,210,384.218,210,380.878z"/>
<path style="fill:#DCDDDD;" d="M480.5,417.015v9.16c0,13.12-10.63,23.75-23.75,23.75H56.25c-13.12,0-23.75-10.63-23.75-23.75v-9.16
	c0-2.81,2.28-5.09,5.09-5.09h437.82C478.22,411.925,480.5,414.205,480.5,417.015z"/>
<path style="fill:#B9C1C1;" d="M157.285,429.925c-11.137,0-20.475-7.66-23.046-18H37.59c-2.81,0-5.09,2.28-5.09,5.09v9.16
	c0,13.12,10.63,23.75,23.75,23.75h400.5c11.844,0,21.655-8.663,23.453-20H157.285z"/>
<path style="fill:#474755;" d="M355.5,239.045v147.88h-200v-147.88c0-5.04,4.08-9.12,9.12-9.12h181.76
	C351.42,229.925,355.5,234.005,355.5,239.045z"/>
<path style="fill:#404251;" d="M231.12,229.925h-66.5c-5.04,0-9.12,4.08-9.12,9.12v147.88H222v-147.88
	C222,234.005,226.08,229.925,231.12,229.925z"/>
<path style="fill:#DCDDDD;" d="M478.5,318.425h-445c-4.142,0-7.5-3.358-7.5-7.5s3.358-7.5,7.5-7.5h445c4.142,0,7.5,3.358,7.5,7.5
	S482.642,318.425,478.5,318.425z"/>
<path style="fill:#FF395E;" d="M346.38,229.925H164.62c-5.04,0-9.12,4.08-9.12,9.12v30.88h200v-30.88
	C355.5,234.005,351.42,229.925,346.38,229.925z"/>
<path style="fill:#B12E65;" d="M222,239.045c0-5.04,4.08-9.12,9.12-9.12h-66.5c-5.04,0-9.12,4.08-9.12,9.12v30.88H222V239.045z"/>
<circle style="fill:#842D65;" cx="175.5" cy="249.93" r="5"/>
<circle style="fill:#EAB430;" cx="192" cy="250.43" r="5"/>
<circle style="fill:#C5D65C;" cx="208.5" cy="250.93" r="5"/>
<path style="fill:#F4F5F5;" d="M272,77.075v206.7c0,0.321-0.083,0.637-0.241,0.917l-13.139,23.221c-0.713,1.259-2.527,1.259-3.24,0
	l-13.139-23.221c-0.158-0.28-0.241-0.595-0.241-0.917V77.473c0-7.942,6.009-14.811,13.932-15.36
	c4.561-0.316,8.727,1.412,11.668,4.353C270.32,69.185,272,72.935,272,77.075z"/>
<g>
	<path style="fill:#D7E3E2;" d="M258.991,284.692c-0.158-0.28-0.241-0.595-0.241-0.917V77.473c0-5.237,2.622-9.994,6.674-12.794
		c-2.673-1.821-5.96-2.812-9.492-2.567C248.009,62.662,242,69.531,242,77.473v206.302c0,0.321,0.083,0.637,0.241,0.917
		l13.139,23.221c0.713,1.26,2.527,1.26,3.24,0l6.755-11.939L258.991,284.692z"/>
	<rect x="242" y="108.42" style="fill:#D7E3E2;" width="30" height="21"/>
</g>
<g>
	<path style="fill:#DCDDDD;" d="M20.5,331.425c-11.304,0-20.5-9.196-20.5-20.5s9.196-20.5,20.5-20.5s20.5,9.196,20.5,20.5
		S31.804,331.425,20.5,331.425z M20.5,305.425c-3.033,0-5.5,2.467-5.5,5.5s2.467,5.5,5.5,5.5s5.5-2.467,5.5-5.5
		S23.533,305.425,20.5,305.425z"/>
	<path style="fill:#DCDDDD;" d="M491.5,331.425c-11.304,0-20.5-9.196-20.5-20.5s9.196-20.5,20.5-20.5s20.5,9.196,20.5,20.5
		S502.804,331.425,491.5,331.425z M491.5,305.425c-3.033,0-5.5,2.467-5.5,5.5s2.467,5.5,5.5,5.5s5.5-2.467,5.5-5.5
		S494.533,305.425,491.5,305.425z"/>
</g>
<g>
	<circle style="fill:#000100;" cx="389.17" cy="213.75" r="6.389"/>
	<circle style="fill:#000100;" cx="389.17" cy="213.75" r="6.389"/>
</g>
<path style="fill:#EDEEAB;" d="M482,194.635v35.65c0,2.29-1.85,4.14-4.14,4.14h-88.89c4.56,0,8.79-1.39,12.31-3.77
	c1.17-0.75,2.29-1.62,3.34-2.61l39.48-37.55h33.76C480.15,190.495,482,192.345,482,194.635z"/>
<path style="fill:#DFDE48;" d="M410.93,123.565v88.89c0,12.14-9.83,21.97-21.96,21.97c-12.14,0-21.97-9.83-21.97-21.97v-88.89
	c0-2.29,1.85-4.14,4.14-4.14h35.65C409.08,119.425,410.93,121.275,410.93,123.565z"/>
<path style="fill:#C5D65C;" d="M386.57,212.455v-88.89c0-2.29,1.85-4.14,4.14-4.14h-19.57c-2.29,0-4.14,1.85-4.14,4.14v88.89
	c0,12.14,9.83,21.97,21.97,21.97c3.516,0,6.836-0.83,9.782-2.299C391.53,228.528,386.57,221.076,386.57,212.455z"/>
<path style="fill:#D7E07E;" d="M469.18,160.925c1.57,1.66,1.51,4.28-0.15,5.85l-64.41,61.27c-1.05,0.99-2.17,1.86-3.35,2.61
	c5.83-3.95,9.66-10.63,9.66-18.2v-51.05l27.82-26.46c1.66-1.58,4.28-1.51,5.85,0.14L469.18,160.925z"/>
<circle style="fill:#A0B248;" cx="389.17" cy="213.75" r="6.389"/>
<path style="fill:#C5D65C;" d="M202.5,347.425h-22c-4.142,0-7.5-3.358-7.5-7.5s3.358-7.5,7.5-7.5h22c4.142,0,7.5,3.358,7.5,7.5
	S206.642,347.425,202.5,347.425z"/>
<path style="fill:#FF395E;" d="M255.5,370.425h-75c-4.142,0-7.5-3.358-7.5-7.5s3.358-7.5,7.5-7.5h75c4.142,0,7.5,3.358,7.5,7.5
	S259.642,370.425,255.5,370.425z"/>
<path style="fill:#C5D65C;" d="M329.5,370.425h-51c-4.142,0-7.5-3.358-7.5-7.5s3.358-7.5,7.5-7.5h51c4.142,0,7.5,3.358,7.5,7.5
	S333.642,370.425,329.5,370.425z"/>
<path style="fill:#EAB430;" d="M330.5,347.425h-101c-4.142,0-7.5-3.358-7.5-7.5s3.358-7.5,7.5-7.5h101c4.142,0,7.5,3.358,7.5,7.5
	S334.642,347.425,330.5,347.425z"/>
<g>
</g>
<g>
</g>
<g>
</g>
<g>
</g>
<g>
</g>
<g>
</g>
<g>
</g>
<g>
</g>
<g>
</g>
<g>
</g>
<g>
</g>
<g>
</g>
<g>
</g>
<g>
</g>
<g>
</g>
</svg>
